<?xml version="1.0" standalone="no"?>
<!DOCTYPE svg PUBLIC "-//W3C//DTD SVG 20010904//EN"
 "http://www.w3.org/TR/2001/REC-SVG-20010904/DTD/svg10.dtd">
<svg version="1.0" xmlns="http://www.w3.org/2000/svg"
 width="200.000000pt" height="200.000000pt" viewBox="0 0 200.000000 200.000000"
 preserveAspectRatio="xMidYMid meet">
<metadata>
Created by potrace 1.11, written by Peter Selinger 2001-2013
</metadata>
<g transform="translate(0.000000,200.000000) scale(0.100000,-0.100000)"
fill="#000000" stroke="none">
<path d="M1420 1654 c-15 -4 -264 -34 -660 -80 -124 -15 -228 -29 -232 -33 -3
-3 0 -35 8 -71 21 -96 29 -344 15 -485 -7 -66 -30 -239 -52 -384 -21 -145 -38
-266 -36 -267 6 -6 982 67 988 74 3 4 16 84 28 177 13 94 30 217 39 275 22
154 23 509 0 615 -39 179 -46 192 -98 179z m31 -204 c18 -125 6 -331 -31 -520
-16 -85 -41 -222 -56 -305 -14 -82 -27 -150 -28 -151 -9 -6 -773 -61 -777 -56
-3 4 14 111 37 237 66 355 72 450 51 749 l-2 28 385 77 385 77 12 -25 c6 -14
17 -64 24 -111z"/>
<path d="M1012 1390 c-220 -45 -252 -53 -240 -65 8 -8 518 97 512 106 -8 13
-17 12 -272 -41z"/>
<path d="M1023 1256 c-167 -22 -233 -34 -233 -44 0 -8 8 -11 23 -7 12 2 116
16 232 30 116 14 216 28 223 30 13 5 7 26 -6 24 -4 -1 -112 -16 -239 -33z"/>
<path d="M1015 1136 c-136 -12 -229 -25 -229 -31 1 -5 15 -9 30 -8 16 2 119
10 229 18 110 9 210 18 223 21 25 5 20 25 -6 23 -9 -1 -120 -11 -247 -23z"/>
<path d="M1000 984 c-129 -12 -242 -23 -249 -23 -10 -1 -12 -4 -5 -11 14 -14
526 31 532 48 5 15 15 15 -278 -14z"/>
<path d="M1035 870 c-88 -4 -193 -8 -232 -9 -41 0 -73 -5 -73 -11 0 -18 498
-4 503 15 3 13 -7 13 -198 5z"/>
<path d="M1165 762 c-211 -23 -449 -53 -453 -57 -3 -3 -3 -8 1 -11 8 -8 479
46 490 56 12 11 -3 16 -38 12z"/>
<path d="M935 617 c-132 -10 -244 -23 -249 -28 -6 -5 3 -9 25 -9 52 0 473 32
478 36 19 18 -47 18 -254 1z"/>
</g>
</svg>
